<svg fill="none" height="70" viewBox="0 0 70 70" width="70" xmlns="http://www.w3.org/2000/svg"><path d="m61.0312 70h-51.95308c-5.03124 0-9.07812-4.0469-9.07812-8.9688v-51.95308c0-5.03124 4.04688-9.07812 9.07812-9.07812h51.95308c4.9219 0 8.9688 4.04688 8.9688 9.07812v51.95308c0 4.9219-4.0469 8.9688-8.9688 8.9688z" fill="#fff"/><g fill="#327feb"><path d="m47.2654 26.641c.8375-.9423 1.2563-2.0939 1.2563-3.3502 0-2.722-2.1986-5.0252-5.0253-5.0252h-20.6244c-1.1516 0-2.0938.4187-2.8267 1.1516-.7328.7328-1.1516 1.6751-1.1516 2.8267 0 2.1985 1.7798 3.9783 3.9783 3.9783h3.6643c3.4548 0 5.2346 4.083 2.9314 6.7003l-9.9458 11.2021c-.8376.9422-1.2563 2.0939-1.2563 3.3502 0 2.722 2.1985 5.0252 5.0252 5.0252h19.1587c-.8375-1.0469-1.361-2.5126-1.361-3.9783s.5235-2.9314 1.361-3.9783h-2.0938c-3.4549 0-5.3393-4.083-3.0361-6.7003z"/><path d="m48.5217 52.5c2.1971 0 3.9783-1.7811 3.9783-3.9783s-1.7812-3.9783-3.9783-3.9783c-2.1972 0-3.9783 1.7811-3.9783 3.9783s1.7811 3.9783 3.9783 3.9783z"/></g></svg>